<mxfile compressed="false" type="device">
    <diagram id="Page-1" name="Page-1">
      <mxGraphModel arrows="1" connect="1" dx="1360" dy="864" fold="1" grid="1" gridSize="10" guides="1" math="0" page="1" pageHeight="1169" pageScale="1" pageWidth="827" shadow="1" tooltips="1">
        <root>
          <mxCell id="0" />   
          <mxCell id="1" parent="0" />
        <object id="node-1" label="node-1">
      <mxCell parent="1" style="rounded=1;whiteSpace=wrap;html=1;" vertex="1">
          <mxGeometry as="geometry" height="60" width="120" x="536" y="0" />
      </mxCell>
    </object><object id="node-2" label="node-2">
      <mxCell parent="1" style="rounded=1;whiteSpace=wrap;html=1;" vertex="1">
          <mxGeometry as="geometry" height="60" width="120" x="332" y="698" />
      </mxCell>
    </object><object id="node-3" label="node-3">
      <mxCell parent="1" style="rounded=1;whiteSpace=wrap;html=1;" vertex="1">
          <mxGeometry as="geometry" height="60" width="120" x="1042" y="120" />
      </mxCell>
    </object><object a="b" c="d" id="node-4" label="node-4" link="http://google.com">
      <mxCell parent="1" style="rounded=1;whiteSpace=wrap;html=1;" vertex="1">
          <mxGeometry as="geometry" height="60" width="120" x="802" y="0" />
      </mxCell>
    </object><object id="98b6238be5acd1302f49c499f9173e32" label="bla1">
      <mxCell edge="1" parent="1" source="node-1" style="endArrow=none;" target="node-2">
          <mxGeometry as="geometry" relative="1" />
      </mxCell>
    </object><object id="c0b00b2fdeaaa6f41cab0ef2448ffcef" label="bla2">
      <mxCell edge="1" parent="1" source="node-2" style="endArrow=none;" target="node-3">
          <mxGeometry as="geometry" relative="1" />
      </mxCell>
    </object><object id="c8fe43e5ad1ce2c05bfc0b371d1fb987" label="bla3">
      <mxCell edge="1" parent="1" source="node-3" style="endArrow=none;" target="node-1">
          <mxGeometry as="geometry" relative="1" />
      </mxCell>
    </object><object id="3972a5fc4a57b84e0376216959d97b1c" label="bla4">
      <mxCell edge="1" parent="1" source="node-4" style="endArrow=none;" target="node-3">
          <mxGeometry as="geometry" relative="1" />
      </mxCell>
    </object></root>
      </mxGraphModel>
    </diagram></mxfile>